<svg xmlns="http://www.w3.org/2000/svg" width="871" height="191" viewBox="0 0 871 191" fill="none">
<path d="M77.6708 62.2269C68.8297 62.2269 61.1893 60.7534 54.7496 57.8064L49.5104 84.3295H81.1089C81.1089 90.1143 79.6354 94.8623 76.6884 98.5734C73.8506 102.175 69.8121 103.976 64.5729 103.976C58.8972 103.976 53.4398 102.939 48.2006 100.865C47.1091 100.429 46.5088 100.156 46.3997 100.047L37.0675 149H1.37589L22.1687 40.9429H95.1891C95.1891 47.601 93.6064 52.8401 90.4411 56.6603C87.385 60.3713 83.1282 62.2269 77.6708 62.2269ZM96.1893 47.0006C101.319 40.9975 108.141 37.9959 116.655 37.9959C123.422 37.9959 128.606 39.3057 132.208 41.9252C135.81 44.654 138.812 49.3473 141.213 56.0054L148.089 75.4884L172.812 41.1066H194.914L154.802 94.3166L165.117 123.459C166.645 127.825 168.719 131.645 171.338 134.92C174.067 138.085 176.632 139.941 179.033 140.486C176.85 144.634 173.849 147.636 170.028 149.491C166.317 151.347 161.678 152.274 156.112 152.274C150.654 152.274 145.961 150.474 142.032 146.872C138.212 143.27 134.828 137.43 131.881 129.353L127.133 116.255L102.411 149H82.2729L119.929 96.7724L108.141 63.8641C106.395 59.0616 104.648 55.4597 102.902 53.0584C101.156 50.548 98.9181 48.5287 96.1893 47.0006ZM272.669 115.109C275.506 117.183 276.925 120.458 276.925 124.933C276.925 129.299 275.943 133.064 273.978 136.23C272.123 139.286 269.34 142.014 265.628 144.416C257.661 149.546 246.691 152.111 232.72 152.111C218.858 152.111 208.107 148.509 200.467 141.305C192.935 133.992 189.17 123.896 189.17 111.016C189.17 92.7885 193.918 76.7436 203.414 62.8818C210.618 52.6218 220.659 45.3088 233.539 40.9429C240.197 38.7599 246.8 37.6684 253.349 37.6684C259.898 37.6684 265.192 38.105 269.23 38.9782C273.269 39.8514 276.816 41.1612 279.872 42.9076C286.53 46.7278 289.859 51.694 289.859 57.8064C289.859 63.3729 287.24 68.23 282.001 72.3777C277.198 76.0887 272.832 77.9443 268.903 77.9443C264.974 77.9443 262.19 77.6714 260.553 77.1257C260.99 73.1963 261.208 69.9764 261.208 67.466C261.208 64.8464 261.153 62.6089 261.044 60.7534C260.935 58.8978 260.608 57.0969 260.062 55.3505C258.97 51.312 256.733 49.2928 253.349 49.2928C250.075 49.2928 246.746 50.8754 243.362 54.0407C240.088 57.0969 237.032 61.2445 234.194 66.4837C227.754 78.3809 224.534 91.3695 224.534 105.45C224.534 112.217 226.444 117.565 230.264 121.495C234.085 125.315 240.088 127.225 248.274 127.225C254.386 127.225 260.335 125.206 266.12 121.167C268.63 119.421 270.813 117.401 272.669 115.109ZM297.531 144.088C295.021 141.25 293.165 137.594 291.965 133.119C290.873 128.644 290.328 122.75 290.328 115.437C290.328 108.124 291.583 101.138 294.093 94.4803C296.604 87.8222 300.151 82.0919 304.735 77.2894C314.122 67.2477 326.565 62.2269 342.064 62.2269C347.631 62.2269 352.433 63.1546 356.472 65.0102L384.468 62.2269L372.353 126.079C372.025 127.389 371.862 129.244 371.862 131.645C371.862 134.047 372.571 136.011 373.99 137.539C375.518 139.067 377.374 139.941 379.557 140.159C378.465 143.87 375.9 146.817 371.862 149C367.932 151.183 363.73 152.274 359.255 152.274C354.78 152.274 351.014 151.401 347.958 149.655C345.011 148.018 343.101 145.78 342.228 142.942C340.481 145.671 337.753 147.909 334.042 149.655C330.331 151.401 325.965 152.274 320.944 152.274C316.032 152.274 311.557 151.62 307.518 150.31C303.48 149 300.151 146.926 297.531 144.088ZM332.077 77.6168C330.876 79.5815 329.73 82.2556 328.639 85.6392C327.547 88.9137 326.074 95.026 324.218 103.976C322.472 112.817 321.599 120.403 321.599 126.734C321.599 133.064 322.09 137.157 323.072 139.013C324.054 140.868 325.419 141.796 327.165 141.796C330.658 141.796 333.66 140.159 336.17 136.885C338.79 133.501 340.59 128.862 341.573 122.968L350.25 74.9973C347.958 73.0326 345.448 72.0502 342.719 72.0502C340.099 72.0502 337.971 72.4868 336.334 73.36C334.806 74.2332 333.387 75.6522 332.077 77.6168ZM469.593 137.867C465.008 142.451 459.551 145.998 453.22 148.509C446.999 151.019 440.777 152.274 434.556 152.274C428.334 152.274 424.132 151.729 421.949 150.637L416.874 178.47L383.638 181.745L406.232 65.5013L432.919 62.718L430.79 74.0149C435.375 66.2654 442.415 62.3906 451.911 62.3906C462.607 62.3906 470.793 65.8288 476.469 72.7051C481.49 78.9266 484 86.7853 484 96.2812C484 105.777 482.745 113.909 480.235 120.676C477.724 127.443 474.177 133.173 469.593 137.867ZM423.914 139.832C426.206 141.796 428.771 142.779 431.609 142.779C434.447 142.779 436.684 142.233 438.322 141.141C439.959 140.05 441.378 138.413 442.578 136.23C445.853 130.336 448.8 118.438 451.419 100.538C452.183 95.2989 452.565 90.1143 452.565 84.9844C452.565 79.8544 451.965 76.4708 450.764 74.8335C449.673 73.1963 448.036 72.3777 445.853 72.3777C439.195 72.3777 434.774 78.872 432.591 91.8607L423.914 139.832ZM533.159 139.995C529.776 148.181 522.681 152.274 511.875 152.274C506.309 152.274 501.779 150.364 498.286 146.544C495.339 143.161 493.866 139.777 493.866 136.393C493.866 127.552 495.885 114.509 499.924 97.2636L505.981 65.5013L539.217 62.2269L529.23 113.963C527.374 122.04 526.447 127.498 526.447 130.336C526.447 136.557 528.684 139.777 533.159 139.995ZM508.928 42.7438C508.928 38.4871 510.675 35.2126 514.167 32.9205C517.769 30.6284 522.135 29.4823 527.265 29.4823C532.395 29.4823 536.488 30.6284 539.544 32.9205C542.71 35.2126 544.292 38.4871 544.292 42.7438C544.292 47.0006 542.546 50.2205 539.053 52.4035C535.67 54.5865 531.413 55.678 526.283 55.678C521.153 55.678 516.951 54.5865 513.676 52.4035C510.511 50.2205 508.928 47.0006 508.928 42.7438ZM549.727 132.628C549.727 129.681 550.491 124.496 552.019 117.074L560.697 72.8689H551.037L551.692 67.9572C564.79 64.0278 577.669 57.2606 590.331 47.6555H598.189L594.26 65.5013H607.03L605.557 72.8689H592.95L584.6 117.074C583.181 123.841 582.472 128.371 582.472 130.663C582.472 135.902 584.764 139.067 589.348 140.159C588.257 143.87 585.746 146.817 581.817 149C577.888 151.183 573.14 152.274 567.573 152.274C562.006 152.274 557.641 150.528 554.475 147.035C551.31 143.543 549.727 138.74 549.727 132.628ZM612.666 144.088C610.155 141.25 608.3 137.594 607.099 133.119C606.008 128.644 605.462 122.75 605.462 115.437C605.462 108.124 606.717 101.138 609.228 94.4803C611.738 87.8222 615.285 82.0919 619.87 77.2894C629.256 67.2477 641.699 62.2269 657.199 62.2269C662.765 62.2269 667.568 63.1546 671.606 65.0102L699.603 62.2269L687.487 126.079C687.16 127.389 686.996 129.244 686.996 131.645C686.996 134.047 687.706 136.011 689.124 137.539C690.653 139.067 692.508 139.941 694.691 140.159C693.6 143.87 691.035 146.817 686.996 149C683.067 151.183 678.865 152.274 674.389 152.274C669.914 152.274 666.149 151.401 663.093 149.655C660.146 148.018 658.235 145.78 657.362 142.942C655.616 145.671 652.887 147.909 649.176 149.655C645.465 151.401 641.099 152.274 636.078 152.274C631.167 152.274 626.691 151.62 622.653 150.31C618.615 149 615.285 146.926 612.666 144.088ZM647.211 77.6168C646.011 79.5815 644.865 82.2556 643.773 85.6392C642.682 88.9137 641.208 95.026 639.353 103.976C637.606 112.817 636.733 120.403 636.733 126.734C636.733 133.064 637.224 137.157 638.207 139.013C639.189 140.868 640.553 141.796 642.3 141.796C645.792 141.796 648.794 140.159 651.304 136.885C653.924 133.501 655.725 128.862 656.707 122.968L665.385 74.9973C663.093 73.0326 660.582 72.0502 657.853 72.0502C655.234 72.0502 653.105 72.4868 651.468 73.36C649.94 74.2332 648.521 75.6522 647.211 77.6168ZM747.562 139.995C744.178 148.181 737.084 152.274 726.278 152.274C720.821 152.274 716.346 150.364 712.853 146.544C710.015 143.379 708.596 139.995 708.596 136.393C708.596 128.207 710.506 115.164 714.326 97.2636L726.278 34.394L759.514 31.1195L743.633 113.963C741.777 122.04 740.849 127.498 740.849 130.336C740.849 136.557 743.087 139.777 747.562 139.995Z" fill="white"/>
<path d="M838.246 89.896C852.654 93.6071 859.858 102.503 859.858 116.583C859.858 126.734 855.547 135.138 846.924 141.796C837.755 148.782 825.64 152.274 810.577 152.274C801.627 152.274 794.478 150.583 789.13 147.199C783.781 143.706 781.107 139.122 781.107 133.446C781.107 127.771 783.236 123.186 787.492 119.694C789.675 123.732 792.677 126.679 796.497 128.535C800.427 130.39 804.847 131.318 809.759 131.318C814.78 131.318 818.873 130.008 822.038 127.389C825.203 124.769 826.786 120.894 826.786 115.764C826.786 106.05 820.128 101.193 806.812 101.193L809.595 86.4579C825.531 83.8383 833.499 78.5992 833.499 70.7405C833.499 67.5752 832.407 65.1193 830.224 63.3729C828.041 61.6266 824.876 60.7534 820.728 60.7534C813.415 60.7534 806.539 64.137 800.099 70.9042C798.025 70.3584 796.552 69.3761 795.679 67.9572C794.805 66.4291 794.369 64.137 794.369 61.0808C794.369 58.0247 795.46 55.0776 797.643 52.2398C799.826 49.2928 802.828 46.7278 806.648 44.5448C814.834 39.9606 824.439 37.6684 835.463 37.6684C843.868 37.6684 850.744 39.8514 856.092 44.2174C861.659 48.6924 864.442 54.259 864.442 60.9171C864.442 66.9203 862.041 72.5414 857.238 77.7805C852.436 83.0197 846.105 87.0582 838.246 89.896Z" fill="#00E19B"/>
</svg>

